<svg viewBox="0 0 512 512" fill="none" xmlns="http://www.w3.org/2000/svg"><style>@media (prefers-color-scheme:dark){rect{fill:#b18aff}path{fill:#35363a}}</style><rect width="512" height="512" rx="64" fill="#442793"/><path d="M94.0959 313.888h48.2161v-167.28h35.424V102H59v44.608h35.0959v167.28Zm106.7511 48h115.128V317.28h-67.896v-44.936h62.976v-36.08h-62.976v-41.656h67.24V150H200.847v211.888Zm142.021 48h57.728c36.08 0 51.824-18.04 51.824-43.952 0-19.68-6.888-34.768-44.28-93.48-5.576-9.184-12.792-19.024-17.056-30.176 5.904-.328 14.104-.328 25.584-.328h33.456V198h-52.808c-30.504 0-50.512 14.432-50.512 47.888 0 25.584 16.072 51.496 48.872 101.68 3.936 5.576 8.2 11.48 11.48 17.712-7.872.328-16.072.328-23.616.328h-40.672v44.28Z" fill="#e7e3e1"/></svg>