<?xml version="1.0" standalone="no"?>
<!DOCTYPE svg PUBLIC "-//W3C//DTD SVG 20010904//EN"
 "http://www.w3.org/TR/2001/REC-SVG-20010904/DTD/svg10.dtd">
<svg version="1.0" xmlns="http://www.w3.org/2000/svg"
 width="512.000000pt" height="512.000000pt" viewBox="0 0 512.000000 512.000000"
 preserveAspectRatio="xMidYMid meet">
<metadata>
Created by potrace 1.14, written by Peter Selinger 2001-2017
</metadata>
<g transform="translate(0.000000,512.000000) scale(0.100000,-0.100000)"
fill="#000000" stroke="none">
<path d="M501 5105 c-177 -39 -346 -171 -429 -335 -77 -153 -72 5 -72 -2210 0
-2214 -5 -2054 72 -2209 81 -165 254 -299 433 -336 106 -22 4005 -22 4109 0
182 38 350 168 434 335 77 153 72 -5 72 2210 0 2214 5 2054 -72 2209 -81 165
-254 299 -433 336 -102 21 -4016 21 -4114 0z m1277 -1227 l-3 -223 -177 -3
-178 -2 0 -835 0 -835 -240 0 -240 0 0 835 0 835 -175 0 -175 0 0 225 0 225
595 0 595 0 -2 -222z m1372 -483 l0 -225 -335 0 -335 0 0 -205 0 -205 315 0
315 0 0 -180 0 -180 -315 0 -315 0 0 -225 0 -225 340 0 340 0 0 -225 0 -225
-575 0 -575 0 0 1060 0 1060 570 0 570 0 0 -225z m1350 -475 l0 -220 -295 0
c-162 0 -295 -2 -295 -5 0 -17 78 -153 180 -315 254 -402 357 -586 400 -720
21 -64 25 -94 25 -200 -1 -106 -4 -134 -23 -182 -44 -110 -148 -194 -288 -234
-49 -14 -119 -18 -416 -22 l-358 -4 0 221 0 221 298 1 c163 1 308 4 320 8 23
6 20 12 -79 161 -373 561 -487 791 -496 1005 -11 241 84 402 277 470 80 28
140 33 448 34 l302 1 0 -220z"/>
</g>
</svg>
