<svg viewBox="0 0 301 25" fill="none" xmlns="http://www.w3.org/2000/svg"><path d="M15.495.2c-.1345.5714-.3026.6723-1.2773.6723H2.6547C1.6797.8723 1.5116.7714 1.3772.2H.369L.1 6.99h1.0084c.6723-4.5379 1.21-5.143 4.5042-5.143h1.916v16.8404c0 3.2941-.4034 4.1008-3.2941 4.1681v.8739h8.3697v-.8739c-2.8571-.0673-3.2605-.874-3.2605-4.1681V1.8471h2.2521c3.0588 0 3.563.605 4.1681 5.1428h1.0084L16.5034.2H15.495ZM36.8361.8723h-6.5882v.874c2.0504.0335 2.3865.437 2.3865 2.5882v7.126h-9.479v-7.126c0-2.1513.3361-2.5547 2.3866-2.5883v-.874h-6.5883v.874c2.0505.0336 2.3866.437 2.3866 2.5883v15.9327c0 2.1513-.3361 2.5547-2.3866 2.5883v.8739h6.5883v-.8739c-2.0505-.0336-2.3866-.437-2.3866-2.5883v-7.7311h9.479v7.7311c0 2.1513-.3361 2.5547-2.3865 2.5883v.8739h6.5882v-.8739c-2.0504-.0336-2.3866-.437-2.3866-2.5883V4.3345c0-2.1513.3362-2.5547 2.3866-2.5883v-.874ZM46.1236 23.7294v-.8739c-2.0504-.0336-2.3865-.437-2.3865-2.5883V4.3345c0-2.1513.3361-2.5547 2.3865-2.5883v-.874h-6.5882v.874c2.0504.0336 2.3866.437 2.3866 2.5883v15.9327c0 2.1513-.3362 2.5547-2.3866 2.5883v.8739h6.5882ZM55.8167 24.2c3.5294 0 5.6806-2.0504 5.6806-5.5798 0-2.7899-1.1428-4.6051-3.7983-6.4538l-3.126-2.1513c-2.5211-1.7479-3.2269-2.8571-3.2269-4.8067 0-2.353 1.4453-3.6639 3.8655-3.6639 3.0924 0 4.6723 1.916 5.1765 6.4538h1.0084V.7043h-.9748c-.1008.7058-.2689 1.0755-.5042 1.0755-.4706 0-1.8824-1.3781-4.6051-1.3781-3.5966 0-5.7479 1.8824-5.7479 5.1429 0 2.6218 1.1093 4.336 4.0673 6.3865l3.126 2.1513c2.1849 1.5126 2.958 2.8571 2.958 5.1764 0 2.3866-1.4118 3.7984-3.7647 3.7984-3.2605 0-4.9412-2.2521-5.4454-7.3278h-1.0084v8.1681h.9748c.1009-.7059.2689-1.0756.5042-1.0756.4706 0 2.0168 1.3781 4.8404 1.3781ZM84.4301 16.9059c-.605 4.5378-1.3109 5.8823-4.3025 5.8823h-2.1513c-2.4202 0-2.8907-.4369-2.8907-2.521v-7.7311h3.1596c2.4874 0 2.8908.437 3.1597 3.5967h1.0084V7.9983h-1.0084c-.2689 3.1597-.6723 3.5967-3.1597 3.5967h-3.1596V1.8135h3.9327c3.7983 0 4.5042.9748 4.9748 4.8403h1.0084L84.699.8723H70.8839v.874c2.0504.0335 2.3865.437 2.3865 2.5882v15.9327c0 2.1513-.3361 2.5547-2.3865 2.5883v.8739h14.084l.4706-6.8235h-1.0084ZM99.033 1.7462c2.084.1009 2.487.3362 2.487 1.2437 0 .605-.168 1.3782-.437 2.3866l-4.5374 16-4.605-15.5967c-.437-1.479-.5378-2.2184-.5378-2.7563 0-.9411.4033-1.1764 2.6218-1.2773v-.874h-6.2185v.874c.8068.2017 1.1093.6723 1.6471 2.3866l6.0504 19.7983h1.6135l5.6469-19.832c.437-1.5125.84-2.1176 1.714-2.3529v-.874h-5.445v.874ZM120.046 16.9059c-.605 4.5378-1.311 5.8823-4.303 5.8823h-2.151c-2.42 0-2.891-.4369-2.891-2.521v-7.7311h3.16c2.487 0 2.891.437 3.16 3.5967h1.008V7.9983h-1.008c-.269 3.1597-.673 3.5967-3.16 3.5967h-3.16V1.8135h3.933c3.798 0 4.504.9748 4.975 4.8403h1.008l-.302-5.7815H106.5v.874c2.05.0335 2.386.437 2.386 2.5882v15.9327c0 2.1513-.336 2.5547-2.386 2.5883v.8739h14.084l.47-6.8235h-1.008ZM134.783 1.7462c2.454.0673 2.992.6387 2.992 3.227v15.731L126.884.8722h-2.79v.874c.807.1681 1.378.706 2.252 2.2185v15.4958c0 2.7563-.269 3.3277-2.252 3.395v.8739h6.353v-.8739c-2.521-.0673-2.823-.7059-2.823-3.395V6.284l9.815 17.7143h1.613V4.9731c0-2.3865.37-3.1596 1.681-3.2269v-.874h-5.95v.874ZM149.853 23.7294v-.8739c-2.051-.0336-2.387-.437-2.387-2.5883V4.3345c0-2.1513.336-2.5547 2.387-2.5883v-.874h-6.589v.874c2.051.0336 2.387.437 2.387 2.5883v15.9327c0 2.1513-.336 2.5547-2.387 2.5883v.8739h6.589ZM163.243 1.7462c2.454.0673 2.992.6387 2.992 3.227v15.731L155.344.8722h-2.79v.874c.807.1681 1.378.706 2.252 2.2185v15.4958c0 2.7563-.269 3.3277-2.252 3.395v.8739h6.353v-.8739c-2.521-.0673-2.824-.7059-2.824-3.395V6.284l9.816 17.7143h1.613V4.9731c0-2.3865.37-3.1596 1.681-3.2269v-.874h-5.95v.874ZM180.901 24.2c2.857 0 5.042-1.0756 6.42-2.7227v-4.7395c0-2.2185.336-2.7899 1.613-2.8907v-1.0084h-7.462v1.0084c3.563.1344 4.034.4369 4.034 2.5546v3.1597c0 2.4873-1.513 3.4958-4.74 3.4958-4.168 0-6.588-3.8992-6.588-10.6891 0-7.126 2.252-10.8236 6.555-10.8236 3.327 0 5.109 1.9832 5.579 6.4538h1.009V.7043h-1.042c-.235.9075-.37 1.0755-.807 1.0755-.605 0-1.949-1.3781-4.739-1.3781-5.278 0-8.841 4.8403-8.841 12.0336S175.354 24.2 180.901 24.2ZM191.662 7.158c2.185 0 3.496-1.7815 3.496-4.2353 0-1.7479-.706-2.7227-1.983-2.7227-1.042 0-1.715.6723-1.715 1.5798 0 1.0085.639 1.5799 1.614 1.5799.437 0 .773-.1345 1.143-.5042.067 1.8823-.841 3.4958-2.555 3.4958v.8067ZM204.845 24.2c3.529 0 5.681-2.0504 5.681-5.5798 0-2.7899-1.143-4.6051-3.799-6.4538l-3.126-2.1513c-2.521-1.7479-3.227-2.8571-3.227-4.8067 0-2.353 1.446-3.6639 3.866-3.6639 3.092 0 4.672 1.916 5.176 6.4538h1.009V.7043h-.975c-.101.7058-.269 1.0755-.504 1.0755-.471 0-1.883-1.3781-4.605-1.3781-3.597 0-5.748 1.8824-5.748 5.1429 0 2.6218 1.109 4.336 4.067 6.3865l3.126 2.1513c2.185 1.5126 2.958 2.8571 2.958 5.1764 0 2.3866-1.412 3.7984-3.765 3.7984-3.26 0-4.941-2.2521-5.445-7.3278h-1.008v8.1681h.974c.101-.7059.269-1.0756.505-1.0756.47 0 2.016 1.3781 4.84 1.3781ZM226.904 24.2c3.529 0 5.68-2.0504 5.68-5.5798 0-2.7899-1.142-4.6051-3.798-6.4538l-3.126-2.1513c-2.521-1.7479-3.227-2.8571-3.227-4.8067 0-2.353 1.446-3.6639 3.866-3.6639 3.092 0 4.672 1.916 5.176 6.4538h1.009V.7043h-.975c-.101.7058-.269 1.0755-.504 1.0755-.471 0-1.883-1.3781-4.605-1.3781-3.597 0-5.748 1.8824-5.748 5.1429 0 2.6218 1.109 4.336 4.067 6.3865l3.126 2.1513c2.185 1.5126 2.958 2.8571 2.958 5.1764 0 2.3866-1.412 3.7984-3.765 3.7984-3.26 0-4.941-2.2521-5.445-7.3278h-1.008v8.1681h.974c.101-.7059.269-1.0756.504-1.0756.471 0 2.017 1.3781 4.841 1.3781ZM253.813.8723h-6.588v.874c2.051.0335 2.387.437 2.387 2.5882v7.126h-9.479v-7.126c0-2.1513.336-2.5547 2.386-2.5883v-.874h-6.588v.874c2.051.0336 2.387.437 2.387 2.5883v15.9327c0 2.1513-.336 2.5547-2.387 2.5883v.8739h6.588v-.8739c-2.05-.0336-2.386-.437-2.386-2.5883v-7.7311h9.479v7.7311c0 2.1513-.336 2.5547-2.387 2.5883v.8739h6.588v-.8739c-2.05-.0336-2.386-.437-2.386-2.5883V4.3345c0-2.1513.336-2.5547 2.386-2.5883v-.874ZM264.622 24.2c4.84 0 8.268-4.6386 8.268-11.8991 0-7.2606-3.428-11.8992-8.268-11.8992-4.841 0-8.269 4.6387-8.269 11.8992S259.781 24.2 264.622 24.2Zm0-1.1428c-3.832 0-5.984-4.1009-5.984-10.7563 0-6.6555 2.152-10.7564 5.984-10.7564 3.831 0 5.983 4.1009 5.983 10.7564 0 6.6554-2.152 10.7563-5.983 10.7563ZM294.899 1.7462c1.647.0336 2.219.437 2.219 1.5126 0 .437-.101 1.0084-.437 2.2858l-4.168 15.6974-4.236-16.3025c-.302-1.1765-.336-1.5126-.336-1.8823 0-.9076.437-1.2437 2.387-1.311v-.874h-6.589v.874c1.547.0673 1.782.3026 2.555 3.1933l.672 2.4202-4.101 14.0168-4.336-15.832c-.302-1.1428-.403-1.8487-.403-2.3865 0-1.0084.437-1.3782 1.714-1.4118v-.874h-5.613v.9076c1.244.0673 1.378.3026 2.185 3.1933l5.378 18.958h1.613l4.202-14.1849 3.832 14.1849h1.613l4.874-18.0504c.941-3.5294 1.311-4.0672 2.521-4.1345v-.874h-5.546v.874Z" fill="currentColor"/></svg>
