<svg viewBox="0 0 374 25" fill="none" xmlns="http://www.w3.org/2000/svg"><path d="M17.8292 1.5808A.5984.5984 0 0 0 17.2283.98h-.6342a.5983.5983 0 0 0-.6008.6008v.2337H2.5079v-.2337A.5983.5983 0 0 0 1.907.98h-.6343a.5983.5983 0 0 0-.6008.6008c0 .9013.1001 1.8693.1001 2.7705C.7721 5.553.672 6.788.672 8.0231c0 .3338.267.6008.6008.6008h.5341a.5983.5983 0 0 0 .6008-.6008V6.0203c0-2.0361.7678-2.8039 2.904-2.8039h3.071v17.9249c0 1.3686-.6342 1.9027-1.5688 1.9027H4.2436c-.3338 0-.6008.3004-.6008.6342v.3004c0 .3338.267.6008.6008.6008 1.669 0 3.338-.1001 5.007-.1001 1.669 0 3.3379.1001 5.0069.1001a.5984.5984 0 0 0 .6009-.6008v-.3004c0-.3338-.2671-.6342-.6009-.6342h-2.5702c-.9346 0-1.5689-.5341-1.5689-1.9027V3.2164h3.071c2.1363 0 2.904.7677 2.904 2.804V8.023c0 .3338.2671.6008.6008.6008h.5341a.5984.5984 0 0 0 .6009-.6008c0-1.235-.1002-2.4701-.1002-3.6718 0-.9012.1002-1.8692.1002-2.7705ZM37.3511 3.2832c.3338 0 .6008-.3004.6008-.6342v-.3005a.5983.5983 0 0 0-.6008-.6008c-1.1016 0-2.2031.1001-3.338.1001-1.1015 0-2.2364-.1-3.338-.1a.5983.5983 0 0 0-.6008.6007v.3005c0 .3338.267.6342.6008.6342h1.1683c1.1349 0 1.4353.434 1.4353 1.6356v7.1766H24.6V4.9188c0-1.2017.3004-1.6356 1.4353-1.6356h1.1683c.3338 0 .6009-.3004.6009-.6342v-.3005a.5984.5984 0 0 0-.6009-.6008c-1.1015 0-2.2364.1001-3.3379.1001-1.1349 0-2.2365-.1-3.338-.1a.5983.5983 0 0 0-.6008.6007v.3005c0 .3338.267.6342.6008.6342h.9012c1.135 0 1.4354.434 1.4354 1.6356v16.4896c0 1.2016-.3004 1.6356-1.4354 1.6356h-.9012c-.3338 0-.6008.3004-.6008.6342v.3004c0 .3338.267.6008.6008.6008 1.1015 0 2.2031-.1001 3.338-.1001 1.1015 0 2.2364.1001 3.3379.1001a.5984.5984 0 0 0 .6009-.6008v-.3004c0-.3338-.2671-.6342-.6009-.6342h-1.1683c-1.1349 0-1.4353-.434-1.4353-1.6356v-7.7775h8.6787v7.7775c0 1.2016-.3004 1.6356-1.4353 1.6356h-1.1683c-.3338 0-.6008.3004-.6008.6342v.3004c0 .3338.267.6008.6008.6008 1.1016 0 2.2365-.1001 3.338-.1001 1.1349 0 2.2364.1001 3.338.1001a.5983.5983 0 0 0 .6008-.6008v-.3004c0-.3338-.267-.6342-.6008-.6342h-.9013c-1.1349 0-1.4353-.434-1.4353-1.6356V4.9188c0-1.2017.3004-1.6356 1.4353-1.6356h.9013ZM42.6866 24.5794c2.4701 0 3.872-.1335 5.9416-.1335 2.0695 0 3.4715.1335 5.9416.1335.3671 0 .6342-.267.6342-.6008v-.4339c0-.3338-.2671-.6343-.6342-.6343h-3.0376c-1.7023 0-2.0028-.3004-2.0028-2.3032V5.7199c0-2.0028.3005-2.3032 2.0028-2.3032h3.0376c.3671 0 .6342-.3004.6342-.6342v-.434c0-.3338-.2671-.6008-.6342-.6008-2.4701 0-3.8721.1335-5.9416.1335-2.0696 0-3.4715-.1335-5.9416-.1335-.3672 0-.6342.267-.6342.6008v.434c0 .3338.267.6342.6342.6342h3.0375c1.7024 0 2.0028.3004 2.0028 2.3032v14.8873c0 2.0028-.3004 2.3032-2.0028 2.3032h-3.0375c-.3672 0-.6342.3005-.6342.6343v.4339c0 .3338.267.6008.6342.6008ZM62.1084 24.98c.3338 0 .6342-.2671.6342-.6009 0-.267-.0668-.7343-.0668-1.1682 1.3686 1.1349 3.4715 1.7691 5.8748 1.7691 4.3394 0 6.8763-2.0696 6.8763-5.6078 0-3.2378-1.7358-4.9736-5.2073-6.4757l-3.2044-1.2684c-2.7372-1.1349-3.9388-2.6036-3.9388-4.6731 0-2.6704 1.7691-4.1058 4.9735-4.1058 3.6718 0 5.8415 1.669 5.8415 5.9416 0 .3672.267.6342.6008.6342h.5675a.5983.5983 0 0 0 .6008-.6008c0-.9346-.1001-1.936-.1001-2.8706 0-1.2685.1001-2.7372.1001-4.0056a.5983.5983 0 0 0-.6008-.6008h-.5675c-.3338 0-.6342.267-.6342.6008 0 .267.0668.7343.0668 1.1683-1.3686-1.135-3.4715-1.7691-5.8749-1.7691-4.3393 0-6.8762 2.0695-6.8762 5.6078 0 3.2378 1.7358 4.9735 5.2073 6.4756l3.2044 1.2684c2.7371 1.1349 3.9388 2.6037 3.9388 4.6732 0 2.6704-1.7691 4.1057-4.9736 4.1057-3.6717 0-5.8414-1.669-5.8414-5.9416 0-.3672-.267-.6342-.6008-.6342h-.5675a.5983.5983 0 0 0-.6008.6008c0 .9347.1001 1.936.1001 2.8707 0 1.2684-.1001 2.7371-.1001 4.0055 0 .3338.267.6009.6008.6009h.5675ZM115.138 8.457c.334 0 .601-.267.601-.6008 0-.9346-.1-2.0028-.1-3.0376 0-.9012.1-1.769.1-2.3365 0-.5341-.133-.6676-.668-.6676H99.8504a.5984.5984 0 0 0-.6009.6008v.2337c0 .3338.2671.6342.6009.6342h1.1686c1.001 0 1.535.6008 1.535 1.7691v16.2225c0 1.2685-.601 1.7358-1.869 1.7358h-1.0015c-.3338 0-.6009.3338-.6009.6676v.2336c0 .3338.2671.6009.6009.6009h15.3875c.535 0 .668-.1336.668-.6676 0-.6342-.1-1.5689-.1-2.5369 0-1.1683.1-2.5035.1-3.5716a.5983.5983 0 0 0-.601-.6008h-.5c-.334 0-.601.267-.601.6008v.8011c0 3.872-.634 4.5063-3.939 4.5063h-3.939c-1.035 0-1.869-.5007-1.869-1.8359v-7.9778h3.939c1.735 0 2.203.9013 2.203 2.0028 0 .3338-.034.6676-.034 1.0014 0 .3338.267.6008.601.6008h.568c.333 0 .6-.267.6-.6008 0-1.2017-.1-2.4367-.1-3.6384 0-1.2684.1-2.637.1-3.9054a.5981.5981 0 0 0-.6-.6008h-.568c-.334 0-.601.267-.601.6008s.034.7343.034 1.0681c0 1.1016-.434 2.0028-2.203 2.0028h-3.939V3.2832h6.008c2.671 0 3.772.801 3.772 4.1057v.4673c0 .3338.267.6008.601.6008h.467ZM136.129 1.7477c-.935 0-1.569.1001-2.504.1001-1.535 0-2.436-.1-3.972-.1-.334 0-.601.267-.601.6007v.3338c0 .3338.267.6009.601.6009h2.17c1.035 0 1.335.4005.901 1.8359l-5.14 17.2573-5.174-17.2573c-.434-1.4354-.134-1.836.901-1.836h2.003c.334 0 .601-.267.601-.6008v-.3338a.5984.5984 0 0 0-.601-.6008c-1.536 0-2.437.1001-3.972.1001-.935 0-1.769-.1-2.704-.1-.334 0-.601.267-.601.6007v.3338c0 .3338.267.6009.601.6009h.434c.467 0 .868.2336 1.168 1.1683l6.175 19.8275c.067.1669.234.3004.434.3004h1.269c.2 0 .367-.1335.434-.3004l6.175-19.8275c.3-.9347.701-1.1683 1.168-1.1683h.234c.334 0 .601-.267.601-.6009v-.3338a.5984.5984 0 0 0-.601-.6008ZM154.516 8.457c.334 0 .601-.267.601-.6008 0-.9346-.1-2.0028-.1-3.0376 0-.9012.1-1.769.1-2.3365 0-.5341-.134-.6676-.668-.6676h-15.221c-.334 0-.601.267-.601.6008v.2337c0 .3338.267.6342.601.6342h1.168c1.002 0 1.536.6008 1.536 1.7691v16.2225c0 1.2685-.601 1.7358-1.87 1.7358h-1.001c-.334 0-.601.3338-.601.6676v.2336c0 .3338.267.6009.601.6009h15.388c.534 0 .668-.1336.668-.6676 0-.6342-.1-1.5689-.1-2.5369 0-1.1683.1-2.5035.1-3.5716a.5983.5983 0 0 0-.601-.6008h-.501c-.334 0-.601.267-.601.6008v.8011c0 3.872-.634 4.5063-3.938 4.5063h-3.939c-1.035 0-1.87-.5007-1.87-1.8359v-7.9778h3.939c1.736 0 2.203.9013 2.203 2.0028 0 .3338-.033.6676-.033 1.0014 0 .3338.267.6008.601.6008h.567c.334 0 .601-.267.601-.6008 0-1.2017-.1-2.4367-.1-3.6384 0-1.2684.1-2.637.1-3.9054a.5983.5983 0 0 0-.601-.6008h-.567c-.334 0-.601.267-.601.6008s.033.7343.033 1.0681c0 1.1016-.434 2.0028-2.203 2.0028h-3.939V3.2832h6.009c2.67 0 3.772.801 3.772 4.1057v.4673c0 .3338.267.6008.601.6008h.467ZM175.34 1.7477c-.902 0-1.836.1001-2.738.1001-1.235 0-2.436-.1-3.671-.1-.334 0-.601.267-.601.6007v.3338c0 .3338.267.6009.601.6009h1.502c1.201 0 1.302.3004 1.302 1.3685V21.542L161.454 2.4821c-.368-.6676-.668-.7344-1.102-.7344-.367 0-.768.0668-1.135.0668-.334 0-.667-.0668-1.035-.0668-.333 0-.6.267-.6.6008v.3338c0 .3338.267.6009.6.6009 1.369 0 1.703.267 2.337 1.4687l.167.3004V21.375c0 1.3685-.301 1.669-1.335 1.669h-.868c-.334 0-.601.267-.601.6008v.3338c0 .3338.267.6008.601.6008 1.101 0 2.203-.1001 3.304-.1001 1.002 0 1.97.1001 2.971.1001.334 0 .601-.267.601-.6008v-.3338a.5983.5983 0 0 0-.601-.6008h-.901c-1.035 0-1.502-.3005-1.502-1.669V8.1232l8.879 16.3895c.1.1669.267.2336.4.2336h1.302c.267 0 .468-.2003.468-.4673V4.6517c0-1.0681.3-1.3685 1.335-1.3685h.601c.333 0 .6-.267.6-.6009v-.3338a.5981.5981 0 0 0-.6-.6008ZM180.508 24.5794c2.47 0 3.872-.1335 5.942-.1335 2.069 0 3.471.1335 5.941.1335.368 0 .635-.267.635-.6008v-.4339c0-.3338-.267-.6343-.635-.6343h-3.037c-1.703 0-2.003-.3004-2.003-2.3032V5.7199c0-2.0028.3-2.3032 2.003-2.3032h3.037c.368 0 .635-.3004.635-.6342v-.434c0-.3338-.267-.6008-.635-.6008-2.47 0-3.872.1335-5.941.1335-2.07 0-3.472-.1335-5.942-.1335-.367 0-.634.267-.634.6008v.434c0 .3338.267.6342.634.6342h3.038c1.702 0 2.003.3004 2.003 2.3032v14.8873c0 2.0028-.301 2.3032-2.003 2.3032h-3.038c-.367 0-.634.3005-.634.6343v.4339c0 .3338.267.6008.634.6008ZM214.717 1.7477c-.901 0-1.836.1001-2.737.1001-1.235 0-2.437-.1-3.672-.1-.334 0-.601.267-.601.6007v.3338c0 .3338.267.6009.601.6009h1.502c1.202 0 1.302.3004 1.302 1.3685V21.542L200.831 2.4821c-.367-.6676-.667-.7344-1.101-.7344-.367 0-.768.0668-1.135.0668-.334 0-.668-.0668-1.035-.0668-.334 0-.601.267-.601.6008v.3338c0 .3338.267.6009.601.6009 1.369 0 1.702.267 2.337 1.4687l.167.3004V21.375c0 1.3685-.301 1.669-1.336 1.669h-.868c-.333 0-.6.267-.6.6008v.3338c0 .3338.267.6008.6.6008 1.102 0 2.204-.1001 3.305-.1001 1.001 0 1.969.1001 2.971.1001.334 0 .601-.267.601-.6008v-.3338a.5983.5983 0 0 0-.601-.6008h-.901c-1.035 0-1.503-.3005-1.503-1.669V8.1232l8.879 16.3895c.101.1669.268.2336.401.2336h1.302c.267 0 .467-.2003.467-.4673V4.6517c0-1.0681.301-1.3685 1.335-1.3685h.601c.334 0 .601-.267.601-.6009v-.3338a.5984.5984 0 0 0-.601-.6008ZM226.195 24.98c2.57 0 4.439-.8679 6.108-2.2031.167-.1335.267-.3672.267-.6008v-6.1419c0-.8678.501-1.2684 1.168-1.2684h.635c.367 0 .634-.267.634-.6008v-.3672a.5984.5984 0 0 0-.601-.6009c-1.135 0-2.236.1002-3.371.1002-1.436 0-2.871-.1002-4.306-.1002a.5984.5984 0 0 0-.601.6009v.3338c0 .3338.267.6008.601.6008h2.703c.835 0 1.336.2337 1.336 1.402v2.7371c0 3.2378-1.235 4.573-4.34 4.573-5.04 0-7.811-3.6384-7.811-10.2476 0-6.4756 2.738-10.3143 7.311-10.3143 2.97 0 4.873 2.0696 4.873 6.0084 0 .3338.267.5674.601.5674h.567c.334 0 .601-.267.601-.6008 0-1.135-.1-2.2698-.1-3.4047 0-1.0682.1-2.4368.1-3.505a.5983.5983 0 0 0-.601-.6007h-.634c-.334 0-.567.267-.567.6008s.033.9012.033 1.0681c-.968-.968-2.637-1.669-4.907-1.669-5.708 0-9.146 4.473-9.146 11.8832 0 7.5772 3.305 11.7497 9.447 11.7497ZM245.316 1.3472c-1.235 0-2.437.801-2.437 2.2698 0 1.4353 1.035 2.1029 2.203 2.1029.768 0 1.302-.1669 1.703-.6342.066.2003.1.3672.1.5674 0 1.669-1.102 3.0042-3.739 3.0042-.267 0-.434.2337-.434.4673v.2003c0 .3338.267.4673.568.4673 2.87 0 5.007-1.5354 5.007-4.5062 0-3.0042-1.536-3.9388-2.971-3.9388ZM258.996 24.98c.334 0 .635-.2671.635-.6009 0-.267-.067-.7343-.067-1.1682 1.368 1.1349 3.471 1.7691 5.875 1.7691 4.339 0 6.876-2.0696 6.876-5.6078 0-3.2378-1.736-4.9736-5.207-6.4757l-3.205-1.2684c-2.737-1.1349-3.939-2.6036-3.939-4.6731 0-2.6704 1.77-4.1058 4.974-4.1058 3.672 0 5.841 1.669 5.841 5.9416 0 .3672.267.6342.601.6342h.568c.334 0 .601-.267.601-.6008 0-.9346-.101-1.936-.101-2.8706 0-1.2685.101-2.7372.101-4.0056a.5983.5983 0 0 0-.601-.6008h-.568c-.334 0-.634.267-.634.6008 0 .267.067.7343.067 1.1683-1.369-1.135-3.472-1.7691-5.875-1.7691-4.339 0-6.876 2.0695-6.876 5.6078 0 3.2378 1.735 4.9735 5.207 6.4756l3.204 1.2684c2.738 1.1349 3.939 2.6037 3.939 4.6732 0 2.6704-1.769 4.1057-4.973 4.1057-3.672 0-5.842-1.669-5.842-5.9416 0-.3672-.267-.6342-.601-.6342h-.567c-.334 0-.601.267-.601.6008 0 .9347.1 1.936.1 2.8707 0 1.2684-.1 2.7371-.1 4.0055 0 .3338.267.6009.601.6009h.567ZM298.374 24.98c.334 0 .634-.2671.634-.6009 0-.267-.067-.7343-.067-1.1682 1.369 1.1349 3.472 1.7691 5.875 1.7691 4.34 0 6.876-2.0696 6.876-5.6078 0-3.2378-1.735-4.9736-5.207-6.4757l-3.204-1.2684c-2.737-1.1349-3.939-2.6036-3.939-4.6731 0-2.6704 1.769-4.1058 4.974-4.1058 3.671 0 5.841 1.669 5.841 5.9416 0 .3672.267.6342.601.6342h.567c.334 0 .601-.267.601-.6008 0-.9346-.1-1.936-.1-2.8706 0-1.2685.1-2.7372.1-4.0056a.5983.5983 0 0 0-.601-.6008h-.567c-.334 0-.634.267-.634.6008 0 .267.066.7343.066 1.1683-1.368-1.135-3.471-1.7691-5.874-1.7691-4.34 0-6.877 2.0695-6.877 5.6078 0 3.2378 1.736 4.9735 5.208 6.4756l3.204 1.2684c2.737 1.1349 3.939 2.6037 3.939 4.6732 0 2.6704-1.769 4.1057-4.974 4.1057-3.672 0-5.841-1.669-5.841-5.9416 0-.3672-.267-.6342-.601-.6342h-.567c-.334 0-.601.267-.601.6008 0 .9347.1 1.936.1 2.8707 0 1.2684-.1 2.7371-.1 4.0055 0 .3338.267.6009.601.6009h.567ZM332.683 3.2832c.334 0 .601-.3004.601-.6342v-.3005a.5984.5984 0 0 0-.601-.6008c-1.101 0-2.203.1001-3.338.1001-1.101 0-2.236-.1-3.338-.1-.334 0-.601.267-.601.6007v.3005c0 .3338.267.6342.601.6342h1.168c1.135 0 1.436.434 1.436 1.6356v7.1766h-8.679V4.9188c0-1.2017.3-1.6356 1.435-1.6356h1.169c.333 0 .601-.3004.601-.6342v-.3005a.599.599 0 0 0-.601-.6008c-1.102 0-2.237.1001-3.338.1001-1.135 0-2.237-.1-3.338-.1-.334 0-.601.267-.601.6007v.3005c0 .3338.267.6342.601.6342h.901c1.135 0 1.435.434 1.435 1.6356v16.4896c0 1.2016-.3 1.6356-1.435 1.6356h-.901c-.334 0-.601.3004-.601.6342v.3004c0 .3338.267.6008.601.6008 1.101 0 2.203-.1001 3.338-.1001 1.101 0 2.236.1001 3.338.1001a.599.599 0 0 0 .601-.6008v-.3004c0-.3338-.268-.6342-.601-.6342h-1.169c-1.135 0-1.435-.434-1.435-1.6356v-7.7775h8.679v7.7775c0 1.2016-.301 1.6356-1.436 1.6356h-1.168c-.334 0-.601.3004-.601.6342v.3004c0 .3338.267.6008.601.6008 1.102 0 2.237-.1001 3.338-.1001 1.135 0 2.237.1001 3.338.1001.334 0 .601-.267.601-.6008v-.3004c0-.3338-.267-.6342-.601-.6342h-.901c-1.135 0-1.435-.434-1.435-1.6356V4.9188c0-1.2017.3-1.6356 1.435-1.6356h.901ZM343.96 24.98c5.041 0 8.846-4.039 8.846-11.8164 0-7.7775-3.805-11.8164-8.846-11.8164-5.04 0-8.845 4.0389-8.845 11.8164 0 7.7774 3.805 11.8164 8.845 11.8164Zm0-1.5355c-3.738 0-6.976-3.2712-6.976-10.2809 0-7.0098 3.238-10.281 6.976-10.281 3.739 0 6.977 3.2712 6.977 10.281 0 7.0097-3.238 10.2809-6.977 10.2809ZM360.311 24.5794c.234 0 .434-.1669.467-.4005l2.771-18.6259h.2l2.771 18.6259c.033.2336.233.4005.467.4005h1.469c.233 0 .434-.1335.467-.4005l2.47-19.5271c.167-1.3019.401-1.3686.968-1.3686h.367c.334 0 .601-.267.601-.6009v-.3338a.5984.5984 0 0 0-.601-.6008c-.801 0-1.468.1001-2.27.1001-.968 0-2.002-.1-3.07-.1-.334 0-.601.267-.601.6007v.3338c0 .3338.267.6009.601.6009h1.468c.668 0 .968.0667.835 1.3018l-1.936 16.5897h-.201L364.717 2.215c-.033-.2336-.233-.4005-.467-.4005h-1.202c-.233 0-.434.1669-.467.4005l-2.837 18.9597h-.201L357.607 4.585c-.133-1.235.167-1.3018.835-1.3018h1.468c.334 0 .601-.267.601-.6009v-.3338a.5984.5984 0 0 0-.601-.6008c-1.068 0-2.102.1001-3.07.1001-.802 0-1.469-.1-2.27-.1-.334 0-.601.267-.601.6007v.3338c0 .3338.267.6009.601.6009h.367c.567 0 .801.0667.968 1.3685l2.47 19.5272c.033.267.234.4005.467.4005h1.469Z" fill="currentColor"/></svg>
