<svg viewBox="0 0 436 25" fill="none" xmlns="http://www.w3.org/2000/svg"><path d="M20.7862.1684c-.3013.569-.4686.6695-1.4393.6695H2.8113c-.9707 0-1.138-.1005-1.4393-.6695H.3678L.1 6.93h1.0042c.569-4.7531 1.7406-5.1213 4.82-5.1213h4.2511v17.4393c0 3.113-.569 3.4142-5.1213 3.4812v.8703h12.0502v-.8703c-4.5523-.067-5.1213-.3682-5.1213-3.4812V1.8086h4.251c3.0795 0 4.251.3682 4.8201 5.1213h1.0042L21.7904.1684h-1.0042ZM51.583.8379H41.3403v.8703c3.7825.0334 4.2176.3347 4.2176 2.7782v6.8954H30.4282V4.4864c0-2.4435.4351-2.7448 4.2176-2.7782V.8379H24.4031v.8703c3.7824.0334 4.2176.3347 4.2176 2.7782v15.4644c0 2.4436-.4352 2.7448-4.2176 2.7783v.8703h10.2427v-.8703c-3.7825-.0335-4.2176-.3347-4.2176-2.7783v-7.4979h15.1297v7.4979c0 2.4436-.4351 2.7448-4.2176 2.7783v.8703H51.583v-.8703c-3.7824-.0335-4.2176-.3347-4.2176-2.7783V4.4864c0-2.4435.4352-2.7448 4.2176-2.7782V.8379ZM64.8497 23.5994v-.8703c-3.7824-.0335-4.2175-.3347-4.2175-2.7783V4.4864c0-2.4435.4351-2.7448 4.2175-2.7782V.8379H54.6071v.8703c3.7824.0334 4.2175.3347 4.2175 2.7782v15.4644c0 2.4436-.4351 2.7448-4.2175 2.7783v.8703h10.2426ZM77.686 24.068c5.7908 0 8.7364-2.0418 8.7364-5.9247 0-3.2803-1.9414-5.0544-5.2552-6.0586l-5.6234-1.7071c-3.1799-.9707-4.8201-2.1422-4.8201-4.6862 0-2.8452 2.2427-4.184 6.5272-4.184 4.6192 0 7.6318 1.6736 8.3347 6.4267h1.0042V.6705h-1.0042c-.1339.7364-.4351 1.0711-.7364 1.0711-.8368 0-3.0795-1.3724-7.3975-1.3724-5.6903 0-8.3682 2.0419-8.3682 5.9247 0 3.0795 2.1423 4.7532 5.4561 5.7574l5.6234 1.7071c3.1799.9707 4.6193 2.2426 4.6193 4.9874 0 2.8452-2.5105 4.1841-6.8954 4.1841-4.6193 0-7.6653-2.0418-8.3347-7.2971H68.548v8.1339h1.0042c.1338-.7364.4351-1.0711.7364-1.0711.8368 0 3.0795 1.3724 7.3974 1.3724ZM121.627 16.8044c-.769 4.6862-1.907 5.8577-5.589 5.8577h-6.494c-2.678 0-3.214-.4351-3.214-2.5104v-7.6988h6.762c3.615 0 4.017.3348 4.318 3.5816h1.004V7.9341h-1.004c-.301 3.2469-.703 3.5816-4.318 3.5816h-6.762V1.7751h7.967c4.82 0 5.992.8703 6.561 4.82h1.004L121.494.838h-21.189v.8703c3.783.0334 4.218.3347 4.218 2.7782v15.4644c0 2.4436-.435 2.7448-4.218 2.7783v.8703h21.758l.569-6.795h-1.005ZM141.597 1.7082c3.046.0334 3.95.3682 3.95 1.4728 0 .4686-.201 1.138-.602 2.1087l-6.929 16.5356-7.699-16.703c-.435-.9706-.602-1.5397-.602-1.9748 0-1.0711.937-1.4059 3.983-1.4393V.8379h-8.569v.8703c1.339.2677 1.774.5355 2.878 2.912l8.904 19.18h1.607l8.067-19.18c.937-2.2426 1.573-2.6443 2.945-2.912V.8379h-7.933v.8703ZM173.013 16.8044c-.769 4.6862-1.908 5.8577-5.59 5.8577h-6.493c-2.678 0-3.214-.4351-3.214-2.5104v-7.6988h6.762c3.615 0 4.017.3348 4.318 3.5816h1.004V7.9341h-1.004c-.301 3.2469-.703 3.5816-4.318 3.5816h-6.762V1.7751h7.967c4.82 0 5.992.8703 6.561 4.82h1.004L172.88.838h-21.189v.8703c3.783.0334 4.218.3347 4.218 2.7782v15.4644c0 2.4436-.435 2.7448-4.218 2.7783v.8703h21.758l.569-6.795h-1.005ZM194.657 1.7082c4.084.067 4.954.6694 4.954 2.8786v16.7699L181.636.8379h-4.284v.8703c1.807.1004 2.811.6025 3.983 1.9414l.1.1004v15.5983c0 2.9456-.435 3.3138-4.083 3.3808v.8703h10.008v-.8703c-4.084-.067-4.653-.5021-4.653-3.3808V5.1893l16.569 18.6779h1.607V4.5868c0-2.2761.602-2.8117 3.347-2.8786V.8379h-9.573v.8703ZM217.308 23.5994v-.8703c-3.783-.0335-4.218-.3347-4.218-2.7783V4.4864c0-2.4435.435-2.7448 4.218-2.7782V.8379h-10.243v.8703c3.783.0334 4.218.3347 4.218 2.7782v15.4644c0 2.4436-.435 2.7448-4.218 2.7783v.8703h10.243ZM237.642 1.7082c4.084.067 4.954.6694 4.954 2.8786v16.7699L224.621.8379h-4.284v.8703c1.807.1004 2.811.6025 3.983 1.9414l.1.1004v15.5983c0 2.9456-.435 3.3138-4.083 3.3808v.8703h10.008v-.8703c-4.084-.067-4.653-.5021-4.653-3.3808V5.1893l16.569 18.6779h1.607V4.5868c0-2.2761.603-2.8117 3.347-2.8786V.8379h-9.573v.8703ZM263.473 24.068c3.95 0 7.197-1.0042 9.807-2.7113V16.637c0-2.2092.469-2.7782 2.611-2.8786v-1.0042h-10.945v1.0042c5.891.1339 6.527.4686 6.527 2.5439v2.2092c0 2.7448-2.912 4.4184-7.766 4.4184-7.029 0-11.046-4.0167-11.046-10.6443 0-7.0293 4.05-10.7783 10.879-10.7783 5.021 0 7.732 1.8745 8.368 6.4268h1.004V.5701h-1.037c-.201.7364-.302 1.0042-.804 1.0042-.703 0-2.979-1.205-7.397-1.205-8.536 0-13.289 5.0878-13.289 11.9832 0 6.9624 5.289 11.7155 13.088 11.7155ZM278.918 7.0973c3.113 0 4.82-1.5063 4.82-4.2176 0-1.8075-.77-2.8117-2.209-2.8117-1.105 0-1.808.636-1.808 1.6402 0 1.0376.603 1.6066 1.707 1.6066.503 0 1.105-.3347 1.373-.9037.134 2.5774-1.205 3.8828-3.883 3.8828v.8034ZM296.403 24.068c5.791 0 8.737-2.0418 8.737-5.9247 0-3.2803-1.942-5.0544-5.255-6.0586l-5.624-1.7071c-3.18-.9707-4.82-2.1422-4.82-4.6862 0-2.8452 2.243-4.184 6.527-4.184 4.619 0 7.632 1.6736 8.335 6.4267h1.004V.6705h-1.004c-.134.7364-.435 1.0711-.736 1.0711-.837 0-3.08-1.3724-7.398-1.3724-5.69 0-8.368 2.0419-8.368 5.9247 0 3.0795 2.142 4.7532 5.456 5.7574l5.623 1.7071c3.18.9707 4.62 2.2426 4.62 4.9874 0 2.8452-2.511 4.1841-6.896 4.1841-4.619 0-7.665-2.0418-8.335-7.2971h-1.004v8.1339h1.004c.134-.7364.436-1.0711.737-1.0711.837 0 3.079 1.3724 7.397 1.3724ZM328.83 24.068c5.791 0 8.737-2.0418 8.737-5.9247 0-3.2803-1.942-5.0544-5.256-6.0586l-5.623-1.7071c-3.18-.9707-4.82-2.1422-4.82-4.6862 0-2.8452 2.242-4.184 6.527-4.184 4.619 0 7.632 1.6736 8.335 6.4267h1.004V.6705h-1.004c-.134.7364-.435 1.0711-.737 1.0711-.837 0-3.079-1.3724-7.397-1.3724-5.691 0-8.368 2.0419-8.368 5.9247 0 3.0795 2.142 4.7532 5.456 5.7574l5.623 1.7071c3.18.9707 4.619 2.2426 4.619 4.9874 0 2.8452-2.51 4.1841-6.895 4.1841-4.619 0-7.665-2.0418-8.335-7.2971h-1.004v8.1339h1.004c.134-.7364.435-1.0711.737-1.0711.836 0 3.079 1.3724 7.397 1.3724ZM368.594.8379h-10.243v.8703c3.783.0334 4.218.3347 4.218 2.7782v6.8954h-15.13V4.4864c0-2.4435.435-2.7448 4.218-2.7782V.8379h-10.243v.8703c3.783.0334 4.218.3347 4.218 2.7782v15.4644c0 2.4436-.435 2.7448-4.218 2.7783v.8703h10.243v-.8703c-3.783-.0335-4.218-.3347-4.218-2.7783v-7.4979h15.13v7.4979c0 2.4436-.435 2.7448-4.218 2.7783v.8703h10.243v-.8703c-3.782-.0335-4.218-.3347-4.218-2.7783V4.4864c0-2.4435.436-2.7448 4.218-2.7782V.8379ZM384.153 24.068c7.464 0 12.853-4.6193 12.853-11.8494 0-7.2301-5.389-11.8494-12.853-11.8494-7.465 0-12.854 4.6193-12.854 11.8494 0 7.2301 5.389 11.8494 12.854 11.8494Zm0-1.1381c-6.293 0-10.578-4.1841-10.578-10.7113s4.285-10.7113 10.578-10.7113c6.292 0 10.577 4.1841 10.577 10.7113s-4.285 10.7113-10.577 10.7113ZM427.392 1.7082c3.113.0334 4.117.4016 4.117 1.5062 0 .3682-.134.8703-.435 1.6737l-6.527 16.636-6.394-16.5356c-.401-1.0711-.535-1.6067-.535-1.9749 0-1.0042.736-1.272 3.548-1.3054V.8379h-9.372v.8703c2.677.067 2.945.2343 3.849 2.477l1.038 2.6108-5.992 14.8954-6.862-16.8033c-.368-.9038-.536-1.4728-.536-1.908 0-.9707.804-1.2385 3.682-1.272V.838h-8.468v.9037c1.774.067 2.008.2678 3.046 2.7783l8.033 19.2803h1.607l6.159-15.364 6.092 15.364h1.607l7.297-18.5774c1.171-2.9456 1.64-3.4477 3.314-3.5146V.8379h-8.268v.8703Z" fill="currentColor"/></svg>
