<svg viewBox="0 0 24 24" fill="none" xmlns="http://www.w3.org/2000/svg"><path fill-rule="evenodd" clip-rule="evenodd" d="M11.2929 2.2929A1 1 0 0 1 13 3v.094a2.65 2.65 0 0 0 1.6011 2.423 2.6502 2.6502 0 0 0 2.9182-.5321l.0078-.0078.06-.06.0004-.0004a1.0006 1.0006 0 0 1 .7075-.2933 1 1 0 0 1 .7075.2933l.0008.0008a.999.999 0 0 1 .217.3246.9987.9987 0 0 1 0 .7658.999.999 0 0 1-.217.3246l-.0004.0004-.06.06h-.0001l-.0077.0078a2.6507 2.6507 0 0 0-.6067 2.729.999.999 0 0 0 .0725.2642A2.6495 2.6495 0 0 0 20.826 11H21a1.0001 1.0001 0 0 1 0 2h-.094a2.65 2.65 0 0 0-2.4231 1.6012 2.6507 2.6507 0 0 0 .5322 2.9181l.0078.0078.06.06.0004.0004a.9995.9995 0 0 1 .2933.7075.9995.9995 0 0 1-.2933.7075l-.0008.0008a.9995.9995 0 0 1-.7075.2933.9995.9995 0 0 1-.7075-.2933l-.0004-.0004-.06-.06-.0078-.0078a2.6507 2.6507 0 0 0-2.9181-.5322A2.6503 2.6503 0 0 0 13.08 20.826V21a1.0001 1.0001 0 0 1-2 0v-.09l-.0003-.0234a2.6498 2.6498 0 0 0-1.705-2.4141 2.6507 2.6507 0 0 0-2.894.5426l-.0078.0078-.06.06-.0004.0004a.999.999 0 0 1-.3246.217.9987.9987 0 0 1-.7658 0 .999.999 0 0 1-.3246-.217l-.0008-.0008a1.0006 1.0006 0 0 1-.2933-.7075 1 1 0 0 1 .2933-.7075l.0004-.0004.06-.06v.0001l.0078-.0079a2.6504 2.6504 0 0 0 .5321-2.9182A2.65 2.65 0 0 0 3.174 13.08H3a1.0002 1.0002 0 0 1-.7071-1.7071A1.0002 1.0002 0 0 1 3 11.08h.09l.0234-.0003a2.65 2.65 0 0 0 2.414-1.705 2.65 2.65 0 0 0-.5425-2.894l-.0078-.0078-.06-.06-.0004-.0004a1.0001 1.0001 0 0 1 0-1.415l.0008-.0008a1.0001 1.0001 0 0 1 1.415 0l.0004.0004.06.06.0078.0078a2.65 2.65 0 0 0 2.729.6067 1.0003 1.0003 0 0 0 .2642-.0725A2.6496 2.6496 0 0 0 11 3.174V3c0-.2652.1054-.5196.2929-.7071Zm9.022 13.1109L19.4 15l.9191.3939A.6498.6498 0 0 1 20.9125 15H21a3 3 0 0 0 0-6h-.1675a.65.65 0 0 1-.5337-.285 1.0058 1.0058 0 0 0-.0639-.1988.6496.6496 0 0 1 .127-.714l.0548-.0547.0004-.0004a2.999 2.999 0 0 0 .8795-2.1221 2.9995 2.9995 0 0 0-.8791-2.1217 2.9998 2.9998 0 0 0-4.245 0l-.0548.0548a.6502.6502 0 0 1-.7139.127l-.0099-.0042A.6495.6495 0 0 1 15 3.0875V3a3 3 0 0 0-6 0v.1675a.65.65 0 0 1-.285.5337.9996.9996 0 0 0-.1988.064.65.65 0 0 1-.7139-.1271l-.0548-.0548a2.9999 2.9999 0 0 0-4.2446-.0004 3.0001 3.0001 0 0 0 .0004 4.2446l.0548.0548a.65.65 0 0 1 .127.714 1.0025 1.0025 0 0 0-.0236.0585.65.65 0 0 1-.5859.4252H3a3 3 0 1 0 0 6h.1675a.6495.6495 0 0 1 .5934.3939v.0001l.0042.0098a.65.65 0 0 1-.127.7139l-.0548.0548a2.9998 2.9998 0 0 0 0 4.245 2.9988 2.9988 0 0 0 2.1217.8791 2.9995 2.9995 0 0 0 2.1221-.8795l.0004-.0004.0548-.0548a.6497.6497 0 0 1 .714-.127.955.955 0 0 0 .0585.0236.6504.6504 0 0 1 .4252.5859V21a2.9998 2.9998 0 0 0 5.1213 2.1213A3 3 0 0 0 15.08 21v-.1675a.6498.6498 0 0 1 .3939-.5934l.0001.0001.0098-.0043a.6497.6497 0 0 1 .7139.127l.0548.0548.0004.0004a2.999 2.999 0 0 0 2.1221.8795 2.9996 2.9996 0 0 0 2.1221-.8795l-.0004.0004-.7067-.7075.7075.7067-.0004.0004a2.999 2.999 0 0 0 .8795-2.1221 2.9996 2.9996 0 0 0-.8795-2.1221l-.0004-.0004-.0548-.0548a.6497.6497 0 0 1-.127-.7139ZM10 12c0-1.1046.8954-2 2-2s2 .8954 2 2-.8954 2-2 2-2-.8954-2-2Zm2-4c-2.2091 0-4 1.7909-4 4 0 2.2091 1.7909 4 4 4 2.2091 0 4-1.7909 4-4 0-2.2091-1.7909-4-4-4Z" fill="currentColor"/></svg>
