<svg viewBox="0 0 24 24" fill="none" xmlns="http://www.w3.org/2000/svg"><path d="M11.9787 23.9575C5.3631 23.9575 0 18.5944 0 11.9787 0 5.3631 5.363 0 11.9787 0c6.6157 0 11.9788 5.363 11.9788 11.9787 0 6.6157-5.3631 11.9788-11.9788 11.9788ZM12 7.875c-.6213 0-1.125.5037-1.125 1.125v6c0 .6213.5037 1.125 1.125 1.125s1.125-.5037 1.125-1.125V9c0-.6213-.5037-1.125-1.125-1.125Zm-3.75-.75c-.6213 0-1.125.5037-1.125 1.125v3.375c0 .6213.5037 1.125 1.125 1.125s1.125-.5037 1.125-1.125V8.25c0-.6213-.5037-1.125-1.125-1.125Zm7.5 4.125c-.6213 0-1.125.5037-1.125 1.125v3.375c0 .6213.5037 1.125 1.125 1.125s1.125-.5037 1.125-1.125v-3.375c0-.6213-.5037-1.125-1.125-1.125ZM12 3.375c-.6213 0-1.125.5037-1.125 1.125v1.125c0 .6213.5037 1.125 1.125 1.125s1.125-.5037 1.125-1.125V4.5c0-.6213-.5037-1.125-1.125-1.125Zm0 13.875c-.6213 0-1.125.5037-1.125 1.125V19.5c0 .6213.5037 1.125 1.125 1.125s1.125-.5037 1.125-1.125v-1.125c0-.6213-.5037-1.125-1.125-1.125Zm3.75-10.5c-.6213 0-1.125.5037-1.125 1.125V9c0 .6213.5037 1.125 1.125 1.125S16.875 9.6213 16.875 9V7.875c0-.6213-.5037-1.125-1.125-1.125Zm-7.5 7.125c-.6213 0-1.125.5037-1.125 1.125v1.125c0 .6213.5037 1.125 1.125 1.125s1.125-.5037 1.125-1.125V15c0-.6213-.5037-1.125-1.125-1.125ZM4.5 10.5c-.6213 0-1.125.5037-1.125 1.125v1.125c0 .6213.5037 1.125 1.125 1.125s1.125-.5037 1.125-1.125v-1.125c0-.6213-.5037-1.125-1.125-1.125Zm15 0c-.6213 0-1.125.5037-1.125 1.125v1.125c0 .6213.5037 1.125 1.125 1.125s1.125-.5037 1.125-1.125v-1.125c0-.6213-.5037-1.125-1.125-1.125Z" fill="currentColor"/></svg>
