<svg viewBox="0 0 24 24" fill="none" xmlns="http://www.w3.org/2000/svg"><path d="M9 9.9375V5l10.5-3v5.2187a.9384.9384 0 0 0-.755-.9172.9373.9373 0 0 0-.4248.014l-8.1839 2.188C9.4687 8.6719 9 9.2419 9 9.9376Z" fill="currentColor" stroke="currentColor" stroke-width="2" stroke-linecap="round" stroke-linejoin="round"/><path d="M19.5 17.6222v-3.75c0 .6521-.4186 1.193-1.0312 1.3992l-2.3907.8508a1.5643 1.5643 0 0 0-1.0781 1.5c0 1.2928 1.2234 2.19 2.4375 1.7813l1.0313-.375c.6126-.2067 1.0312-.7542 1.0312-1.4063ZM7.9688 17.5313C8.5814 17.325 9 16.7771 9 16.125v3.75c0 .6525-.4186 1.2-1.0313 1.4063l-1.0312.375C5.7431 22.0571 4.5 21.1678 4.5 19.875c0-.6928.3806-1.2806 1.0313-1.5l2.4375-.8437Z" fill="currentColor"/><path d="M19.5 13.8722v3.75c0 .6521-.4186 1.1996-1.0312 1.4063l-1.0313.375C16.2234 19.8122 15 18.915 15 17.6222a1.5644 1.5644 0 0 1 1.0781-1.5l2.3907-.8508c.6126-.2062 1.0312-.7471 1.0312-1.3992Zm0 0V7M9 10v6.125m0 0c0 .6521-.4186 1.2-1.0313 1.4063l-2.4375.8437c-.6506.2194-1.0312.8072-1.0312 1.5 0 1.2928 1.2431 2.1821 2.4375 1.7813l1.0313-.375C8.5814 21.075 9 20.5275 9 19.875v-3.75Z" stroke="currentColor" stroke-width="2" stroke-linecap="round" stroke-linejoin="round"/></svg>
