<svg viewBox="0 0 24 24" fill="none" xmlns="http://www.w3.org/2000/svg"><path d="M8.617 22.5a2.5872 2.5872 0 0 1-1.5168-.4945A2.6552 2.6552 0 0 1 6 19.8553a2.3563 2.3563 0 0 1 1.6003-2.2373l2.384-.8025a.7622.7622 0 0 0 .5157-.7261V4.3125a1.5044 1.5044 0 0 1 1.1292-1.4601L16.71 1.5333a1.0314 1.0314 0 0 1 1.29.998v2.707a1.504 1.504 0 0 1-1.1344 1.462l-4.2961 1.0842A.7615.7615 0 0 0 12 8.527v11.348a2.2603 2.2603 0 0 1-1.5366 2.1474l-1.0064.3389a2.6255 2.6255 0 0 1-.84.1387Z" fill="currentColor"/></svg>
