<svg viewBox="0 0 24 24" fill="none" xmlns="http://www.w3.org/2000/svg"><path d="M22 16.92v3a2.0004 2.0004 0 0 1-1.3593 1.9027 1.9995 1.9995 0 0 1-.8207.0973 19.7897 19.7897 0 0 1-8.63-3.07 19.4993 19.4993 0 0 1-6-6 19.7901 19.7901 0 0 1-3.07-8.67A2.0001 2.0001 0 0 1 4.11 2h3a2 2 0 0 1 2 1.72c.1266.96.3614 1.9027.7 2.81a1.9999 1.9999 0 0 1-.45 2.11L8.09 9.91a15.999 15.999 0 0 0 6 6l1.27-1.27a1.9999 1.9999 0 0 1 2.11-.45 12.8358 12.8358 0 0 0 2.81.7 1.9996 1.9996 0 0 1 1.2465.6875c.3172.3743.4857.8521.4735 1.3425Z" stroke="currentColor" stroke-width="2" stroke-linecap="round" stroke-linejoin="round"/></svg>
