<svg viewBox="0 0 24 24" fill="none" xmlns="http://www.w3.org/2000/svg"><path d="M11.9979 14.07c1.1045 0 2-.8954 2-2s-.8955-2-2-2c-1.1046 0-2 .8954-2 2s.8954 2 2 2Z" fill="currentColor" stroke="currentColor" stroke-width="2" stroke-linecap="round" stroke-linejoin="round"/><path d="M16.2379 7.83a6 6 0 0 1 0 8.49m-8.48-.01a5.9997 5.9997 0 0 1-1.3024-6.5426A6 6 0 0 1 7.758 7.82M19.0679 5a10 10 0 0 1 0 14.14m-14.14 0a10.0001 10.0001 0 0 1 0-14.14" stroke="currentColor" stroke-width="2" stroke-linecap="round" stroke-linejoin="round"/></svg>
