<svg viewBox="0 0 24 24" fill="none" xmlns="http://www.w3.org/2000/svg"><path d="M12 0c6.6276.0008 12 5.3732 12 12 0 6.6276-5.3724 12-12 12S0 18.6276 0 12 5.3724 0 12 0Zm5.5034 17.3069c.2161-.3521.104-.8115-.2481-1.0285-3.1632-1.9324-7.0846-2.382-11.6553-1.338a.7466.7466 0 0 0-.5625.8958.7473.7473 0 0 0 .8958.5626c4.1768-.954 7.724-.565 10.5416 1.157a.7476.7476 0 0 0 1.0285-.2489Zm1.4681-3.2664c.2711-.4397.1319-1.0153-.3087-1.2864-3.7035-2.2763-9.1218-2.9166-13.4796-1.5942a.9372.9372 0 0 0-.624 1.1668c.1507.4938.6731.773 1.1677.6231 3.815-1.1578 8.7329-.5838 11.9574 1.3986.4398.2702 1.0162.1327 1.2872-.3079Zm.1261-3.403c.5323.3168 1.2226.1408 1.5378-.3931.3161-.5322.1409-1.2209-.3922-1.5378-4.4528-2.6431-11.4989-2.8913-15.738-1.6049-.5936.1802-.9277.8074-.7484 1.4002.1793.5929.8066.9278 1.3994.7476 3.693-1.1201 10.0733-.9089 13.9414 1.388Z" fill="currentColor"/></svg>
