<svg viewBox="0 0 24 24" fill="none" xmlns="http://www.w3.org/2000/svg"><path d="M17.4 6.6c-.525-.675-1.05-1.05-1.875-1.5-.825-.375-1.5-.525-2.325-.525-.375 0-.825 0-1.05.15-.375 0-.675.15-1.05.375-.3.15-.6.45-.825.675-.3.3-.3.675-.3 1.05s.15.675.3.975c.15.3.375.525.675.675.3.15.675.375 1.05.525.375.15.975.3 1.5.525.825.3 1.65.525 2.4.825.825.3 1.65.675 2.325 1.2.675.525 1.2 1.2 1.725 1.875.375.825.675 1.725.675 2.85 0 1.35-.3 2.4-.675 3.525-.525.975-1.2 1.725-2.025 2.4-.825.675-1.725 1.05-2.85 1.35-1.05.3-2.175.375-3.225.375-1.65 0-3.225-.3-4.875-.825-1.5-.525-2.85-1.35-3.9-2.4l3.675-3.75c.525.675 1.35 1.2 2.325 1.725.975.375 1.875.675 2.7.675.375 0 .825 0 1.2-.15s.675-.3 1.05-.375c.3-.15.525-.375.675-.825.15-.3.3-.675.3-1.2 0-.375-.15-.825-.3-1.05-.3-.3-.525-.525-.975-.825-.375-.3-.975-.525-1.5-.675-.525-.3-1.2-.375-2.025-.675-.675-.3-1.5-.525-2.175-.825-.6-.225-1.275-.75-1.8-1.125-.525-.6-.975-1.125-1.35-1.95C4.425 9 4.35 8.1 4.35 6.975c0-1.35.3-2.4.825-3.225.525-.9 1.125-1.575 1.95-2.25C7.95.975 8.85.45 9.975.15 11.175.15 12.3 0 13.35 0c1.35 0 2.7.3 4.05.675 1.35.525 2.55 1.2 3.525 2.175L17.4 6.6Z" fill="currentColor"/></svg>
