<svg viewBox="0 0 160 86" fill="none" xmlns="http://www.w3.org/2000/svg"><path fill-rule="evenodd" clip-rule="evenodd" d="M160 0H0v86h160V0ZM15.5679 84.688h22.144v-62.08h13.6963V2H2v20.608h13.5679v62.08Zm41.2153 0h48.1278V64.08H78.415V50.256h24.704v-14.72H78.415V22.608h26.24V2H56.7832v82.688Zm78.8078 0h-24.192V64.3359h15.113c2.941 0 6.266 0 9.463-.1279-1.441-2.1611-3.106-4.2097-4.682-6.1456l-.31-.3823c-12.544-17.0241-18.56-25.9841-18.56-36.224C112.423 7.5041 121.511 2 135.079 2h21.76v20.3521h-12.544c-4.096 0-7.168 0-9.728.1279 1.654 2.8937 3.641 5.5371 5.49 7.9975.442.587.875 1.1635 1.294 1.7305 14.08 19.712 16.64 25.216 16.64 33.9201 0 10.6239-6.528 18.5599-22.4 18.5599Z" fill="currentColor"/></svg>
