<?xml version="1.0" standalone="no"?>
<!DOCTYPE svg PUBLIC "-//W3C//DTD SVG 20010904//EN"
 "http://www.w3.org/TR/2001/REC-SVG-20010904/DTD/svg10.dtd">
<svg version="1.0" xmlns="http://www.w3.org/2000/svg"
 width="512.000000pt" height="512.000000pt" viewBox="0 0 512.000000 512.000000"
 preserveAspectRatio="xMidYMid meet">
<metadata>
Created by potrace 1.14, written by Peter Selinger 2001-2017
</metadata>
<g transform="translate(0.000000,512.000000) scale(0.100000,-0.100000)"
fill="#000000" stroke="none">
<path d="M2238 4715 c-1 -1 -59 -6 -127 -9 -67 -4 -139 -9 -160 -11 -20 -3
-54 -7 -76 -9 -166 -18 -436 -69 -569 -108 -38 -11 -76 -21 -85 -23 -28 -6
-154 -52 -231 -84 -134 -57 -327 -168 -409 -236 -174 -144 -280 -271 -376
-449 -41 -77 -98 -218 -121 -303 -23 -87 -45 -175 -49 -198 -1 -11 -5 -38 -9
-60 -19 -122 -24 -198 -21 -370 2 -104 6 -206 10 -225 54 -313 114 -510 223
-740 49 -102 189 -343 203 -348 5 -2 9 -8 9 -13 0 -11 103 -150 175 -235 96
-114 287 -299 415 -401 50 -41 174 -131 202 -148 18 -11 58 -35 88 -53 202
-122 471 -221 725 -266 17 -3 40 -8 52 -10 131 -27 540 -27 683 -1 14 3 41 7
60 10 196 32 492 120 620 185 19 10 38 18 43 19 14 1 209 102 286 148 315 190
634 478 844 764 118 160 273 442 333 604 25 68 80 247 89 289 43 207 47 243
50 441 4 222 -16 379 -73 576 -127 434 -407 754 -847 968 -196 95 -461 180
-690 220 -33 6 -70 13 -81 15 -27 5 -75 13 -139 21 -27 4 -59 8 -70 10 -11 1
-61 6 -110 10 -50 4 -99 10 -110 12 -22 6 -751 14 -757 8z m-377 -1112 c1 -22
1 -341 0 -366 -1 -15 -8 -18 -38 -17 -21 1 -92 2 -158 1 l-120 -1 0 -748 0
-748 -205 2 c-113 0 -210 2 -216 3 -8 1 -10 217 -10 742 1 407 -2 743 -6 745
-4 3 -75 5 -158 5 l-150 -1 0 200 0 200 530 0 c498 0 530 -1 531 -17z m1234
-173 c0 -102 -1 -191 -3 -197 -3 -10 -48 -13 -176 -12 -94 0 -228 0 -298 -1
l-128 0 0 -185 0 -185 282 -2 283 -3 0 -157 c0 -87 -2 -159 -5 -159 -3 -1
-126 -3 -275 -4 -148 -1 -273 -3 -277 -4 -5 0 -8 -90 -8 -199 l0 -198 303 0
302 0 0 -199 0 -200 -512 0 -513 -1 0 948 0 948 512 -2 512 -3 1 -185z m1205
-4 c0 -176 -2 -194 -17 -198 -10 -2 -129 -3 -265 -3 l-246 1 9 -23 c16 -42 41
-87 127 -223 345 -550 402 -665 408 -835 8 -219 -83 -346 -287 -401 -54 -14
-114 -17 -374 -18 l-310 -1 -3 198 -2 197 267 1 c148 1 276 1 286 0 9 -1 17 2
17 8 0 6 -34 61 -76 123 -181 266 -329 515 -390 653 -57 127 -80 261 -63 364
14 87 17 98 43 150 32 62 84 114 149 147 88 45 142 52 445 53 l282 2 0 -195z"/>
</g>
</svg>
